<svg xmlns="http://www.w3.org/2000/svg" width="13.999" height="16" viewBox="0 0 13.999 16" fill="#1f1f1f">
  <path id="Confirm_Weight" d="M-12374.741,16a2.163,2.163,0,0,1-1.709-.777,2.178,2.178,0,0,1-.524-1.8l1.127-7.89a2.272,2.272,0,0,1,.749-1.385,2.146,2.146,0,0,1,1.472-.553h.864a3.408,3.408,0,0,1-.078-.36,2.686,2.686,0,0,1-.024-.37,2.764,2.764,0,0,1,.842-2.025A2.746,2.746,0,0,1-12370,0a2.752,2.752,0,0,1,2.025.842,2.764,2.764,0,0,1,.842,2.025,2.277,2.277,0,0,1-.027.37,2.779,2.779,0,0,1-.075.36h.864a2.146,2.146,0,0,1,1.472.553,2.272,2.272,0,0,1,.749,1.385l1.127,7.89a2.188,2.188,0,0,1-.524,1.8,2.163,2.163,0,0,1-1.708.777Zm9.483-2.255h0Zm-9.483,0h9.483l-1.125-7.89h-7.231Zm4.224-11.4a.7.7,0,0,0-.214.522.7.7,0,0,0,.214.516.713.713,0,0,0,.522.214.687.687,0,0,0,.516-.214.72.72,0,0,0,.211-.522.7.7,0,0,0-.211-.516.707.707,0,0,0-.522-.208A.715.715,0,0,0-12370.518,2.345Zm-2.481,8.011.779-.78,1.243,1.242,3.2-3.2.779.783-3.976,3.976Z" transform="translate(12377)" fill="#fff"/>
</svg>
