<svg xmlns="http://www.w3.org/2000/svg" width="15.709" height="18" viewBox="0 0 15.709 18">
  <path id="Confirm_Weight" d="M-12374.418,18a2.433,2.433,0,0,1-1.921-.874,2.447,2.447,0,0,1-.59-2.024l1.267-8.875a2.552,2.552,0,0,1,.843-1.558,2.414,2.414,0,0,1,1.655-.622h.972a4.081,4.081,0,0,1-.087-.4,3.121,3.121,0,0,1-.028-.416,3.11,3.11,0,0,1,.947-2.278,3.091,3.091,0,0,1,2.229-.945,3.1,3.1,0,0,1,2.277.947,3.105,3.105,0,0,1,.946,2.278,2.7,2.7,0,0,1-.029.416,3.184,3.184,0,0,1-.086.4h.974a2.414,2.414,0,0,1,1.655.622,2.555,2.555,0,0,1,.84,1.558l1.271,8.875a2.458,2.458,0,0,1-.59,2.025,2.43,2.43,0,0,1-1.922.874Zm10.667-2.536Zm-10.667,0h10.667l-1.265-8.875h-8.135Zm4.751-12.823a.787.787,0,0,0-.241.587.787.787,0,0,0,.241.58.8.8,0,0,0,.588.241.773.773,0,0,0,.58-.24.815.815,0,0,0,.236-.588.785.785,0,0,0-.236-.58.8.8,0,0,0-.588-.234.8.8,0,0,0-.605.234Zm-2.791,9.011.877-.877,1.4,1.4,3.6-3.6.877.881-4.472,4.472Z" transform="translate(12376.961)"/>
</svg>
