<svg xmlns="http://www.w3.org/2000/svg" width="48" height="32" viewBox="0 0 48 32">
  <path id="Path_6" data-name="Path 6"
    d="M-6741.484,20a4.3,4.3,0,0,1-3.415-1.556,4.356,4.356,0,0,1-1.051-3.593l2.257-15.779a4.545,4.545,0,0,1,1.5-2.772,4.265,4.265,0,0,1,2.944-1.1h1.727a5.681,5.681,0,0,1-.152-.721,5.034,5.034,0,0,1-.049-.742,5.523,5.523,0,0,1,1.68-4.051A5.513,5.513,0,0,1-6732-12a5.506,5.506,0,0,1,4.046,1.683,5.524,5.524,0,0,1,1.681,4.051,5.32,5.32,0,0,1-.049.742,5.767,5.767,0,0,1-.152.721h1.727a4.268,4.268,0,0,1,2.944,1.1,4.55,4.55,0,0,1,1.5,2.772l2.255,15.779a4.355,4.355,0,0,1-1.05,3.593A4.3,4.3,0,0,1-6722.516,20Zm18.969-4.514h0Zm-18.969,0h18.969L-6724.767-.29h-14.462Zm8.454-22.794a1.4,1.4,0,0,0-.43,1.041,1.408,1.408,0,0,0,.43,1.033,1.412,1.412,0,0,0,1.042.43,1.374,1.374,0,0,0,1.031-.43,1.446,1.446,0,0,0,.418-1.045,1.4,1.4,0,0,0-.42-1.033A1.424,1.424,0,0,0-6732-7.727,1.416,1.416,0,0,0-6733.031-7.307ZM-6707.041,14V.034l-3.78,3.874L-6713,1.7l7.5-7.7,7.5,7.7-2.179,2.206-3.781-3.874V14Z"
    transform="translate(6746 12)" fill="#fff" />
</svg>