<svg width="30" height="20" viewBox="0 0 30 20" fill="none" xmlns="http://www.w3.org/2000/svg">
<g clip-path="url(#clip0_91_10)">
<path d="M2.82197 20.0001C2.41594 20.01 2.01275 19.9278 1.64308 19.7596C1.2734 19.5913 0.946821 19.3415 0.687571 19.0289C0.418013 18.7267 0.219126 18.3682 0.105601 17.9795C-0.00792354 17.5909 -0.0334113 17.1817 0.0311382 16.782L1.44075 6.92075C1.53711 6.25026 1.86954 5.63615 2.37825 5.18887C2.88194 4.73423 3.53974 4.48841 4.21815 4.50137H5.29756C5.25632 4.35334 5.22468 4.20282 5.20265 4.05075C5.18102 3.89712 5.17039 3.74213 5.17121 3.587C5.16433 3.11553 5.2539 2.64764 5.43458 2.21211C5.61526 1.77658 5.88333 1.38263 6.22193 1.0545C6.54902 0.715453 6.94192 0.446989 7.37672 0.265652C7.81152 0.0843156 8.27895 -0.0060512 8.75001 0.000121334C9.22107 -0.00673736 9.68858 0.0830049 10.1236 0.26381C10.5586 0.444616 10.9519 0.712649 11.2793 1.05137C11.6178 1.3796 11.8857 1.77357 12.0664 2.20907C12.247 2.64458 12.3368 3.11242 12.33 3.58387C12.3304 3.73897 12.3203 3.89392 12.2995 4.04762C12.2773 4.19967 12.2454 4.35018 12.2043 4.49825H13.2831C13.9619 4.48522 14.6204 4.73102 15.1245 5.18575C15.6332 5.63302 15.9657 6.24713 16.062 6.91762L17.4713 16.7789C17.5358 17.1787 17.5102 17.5878 17.3966 17.9765C17.2829 18.3652 17.084 18.7237 16.8143 19.0257C16.5551 19.3392 16.2282 19.5898 15.8582 19.7586C15.4881 19.9273 15.0846 20.0099 14.6781 20.0001H2.82197ZM2.82197 17.1795H14.6781L13.2706 7.31825H4.23127L2.82197 17.1795ZM8.10487 2.93262C8.01731 3.01669 7.94819 3.11806 7.90193 3.23029C7.85566 3.34252 7.83344 3.46314 7.83631 3.5845C7.83465 3.70476 7.85754 3.82409 7.90376 3.93513C7.94998 4.04617 8.01836 4.14656 8.10487 4.23012C8.1894 4.31708 8.29091 4.38579 8.40303 4.43201C8.51514 4.47823 8.63578 4.50099 8.75703 4.49887C8.87743 4.50152 8.9968 4.47898 9.10798 4.4327C9.21916 4.38642 9.31952 4.31742 9.40248 4.23012C9.48721 4.14399 9.55375 4.04178 9.5984 3.92951C9.64305 3.81724 9.66492 3.69717 9.66249 3.57637C9.66521 3.45677 9.64344 3.33788 9.5984 3.22704C9.55336 3.11621 9.48603 3.0158 9.40064 2.932C9.31567 2.84649 9.21405 2.77922 9.10218 2.7343C8.99031 2.68938 8.87053 2.66775 8.75001 2.67075C8.63041 2.66878 8.51172 2.69096 8.40089 2.73596C8.29006 2.78095 8.18925 2.84784 8.10487 2.93262ZM20.625 11.4376L21.9864 10.0595L24.35 12.4814V3.75012H26.275V12.4795L28.6386 10.0576L30 11.4376L25.3125 16.2501L20.625 11.4376Z" fill="#4741A6"/>
</g>
<defs>
<clipPath id="clip0_91_10">
<rect width="30" height="20" fill="white"/>
</clipPath>
</defs>
</svg>
