<svg xmlns="http://www.w3.org/2000/svg" width="48" height="32" viewBox="0 0 48 32">
  <path id="Path_5" data-name="Path 5"
    d="M-6367.485,20a4.3,4.3,0,0,1-3.415-1.554,4.357,4.357,0,0,1-1.05-3.595l2.255-15.778a4.552,4.552,0,0,1,1.5-2.771,4.272,4.272,0,0,1,2.944-1.1h1.727a5.772,5.772,0,0,1-.152-.721,5.126,5.126,0,0,1-.05-.742,5.53,5.53,0,0,1,1.681-4.052A5.52,5.52,0,0,1-6358-12a5.517,5.517,0,0,1,4.047,1.682,5.534,5.534,0,0,1,1.681,4.052,5.422,5.422,0,0,1-.049.742,5.861,5.861,0,0,1-.152.721h1.726a4.276,4.276,0,0,1,2.946,1.1,4.552,4.552,0,0,1,1.5,2.771l2.255,15.778a4.356,4.356,0,0,1-1.051,3.595A4.3,4.3,0,0,1-6348.515,20Zm18.97-4.513h0Zm-18.97,0h18.97l-2.252-15.778h-14.463Zm8.453-22.795a1.4,1.4,0,0,0-.43,1.043,1.409,1.409,0,0,0,.43,1.033,1.42,1.42,0,0,0,1.043.43,1.383,1.383,0,0,0,1.033-.43,1.45,1.45,0,0,0,.416-1.046,1.4,1.4,0,0,0-.419-1.031A1.418,1.418,0,0,0-6358-7.727,1.423,1.423,0,0,0-6359.032-7.308ZM-6339,6.3l2.178-2.205,3.782,3.875V-6h3.08V7.967l3.782-3.875L-6324,6.3l-7.5,7.7Z"
    transform="translate(6372 12)" fill="#fff" />
</svg>