<?xml version="1.0" encoding="utf-8"?>
<!-- Svg Vector Icons : http://www.onlinewebfonts.com/icon -->
<!DOCTYPE svg PUBLIC "-//W3C//DTD SVG 1.1//EN" "http://www.w3.org/Graphics/SVG/1.1/DTD/svg11.dtd">
<svg version="1.1" xmlns="http://www.w3.org/2000/svg" xmlns:xlink="http://www.w3.org/1999/xlink" x="0px" y="0px" viewBox="0 0 256 256" enable-background="new 0 0 256 256" xml:space="preserve">
<metadata> Svg Vector Icons : http://www.onlinewebfonts.com/icon </metadata>
<g><g><g><path fill="#000000" d="M10,128v66h102.6c97.3,0,102.6,0,102.9-0.8c0.1-0.4,7-29.8,15.3-65.1c8.3-35.4,15.1-64.7,15.3-65.2c0.2-0.7-5.6-0.8-117.9-0.8H10V128z M224.7,88.9c-1.6,6.7-7,29.7-12,51.2l-9.2,39.1h-89.4H24.8V128V76.8h101.4h101.4L224.7,88.9z"/><path fill="#000000" d="M98,91.4c-0.2,0.1-0.3,16.7-0.3,36.7v36.3h7.4h7.4v-14.5v-14.5h7.4h7.4v14.5v14.5h7.4h7.4l-0.1-36.6l-0.1-36.5L120,91.2C108,91.1,98.1,91.2,98,91.4z M127.1,113.3l0.1,7.3h-7.4h-7.4v-7.1c0-3.9,0.1-7.2,0.3-7.4c0.2-0.1,3.5-0.2,7.2-0.2l7,0.1L127.1,113.3z"/><path fill="#000000" d="M156.6,91.4c-0.2,0.1-0.3,16.7-0.3,36.7v36.3h7.4h7.4v-14.5v-14.5h14.8h14.8l-0.1-22l-0.1-22l-21.7-0.1C166.6,91.1,156.7,91.2,156.6,91.4z M185.7,113.3l0.1,7.3h-7.4H171v-7.1c0-3.9,0.1-7.2,0.3-7.4c0.2-0.1,3.5-0.2,7.2-0.2l7,0.1L185.7,113.3z"/><path fill="#000000" d="M39.5,113.5v21.9h14.5h14.5v7.2v7.1H54.1H39.5v7.4v7.4h21.9h21.9v-21.9v-21.9H68.8H54.3v-7.2v-7.1l14.4-0.1l14.4-0.1l0.1-7.3l0.1-7.2h-22H39.5V113.5z"/></g></g></g>
</svg>