<svg width="30" height="20" viewBox="0 0 30 20" fill="none" xmlns="http://www.w3.org/2000/svg">
<g clip-path="url(#clip0_91_14)">
<path d="M2.82257 19.9999C2.41644 20.0097 2.01336 19.9272 1.64368 19.7588C1.27399 19.5903 0.947297 19.3403 0.68817 19.0274C0.418641 18.7255 0.219831 18.3672 0.1062 17.9788C-0.00743095 17.5903 -0.0331916 17.1814 0.0311267 16.7818L1.44195 6.9199C1.5378 6.24907 1.87031 5.63459 2.37945 5.1874C2.88292 4.73238 3.54087 4.4865 4.21936 4.4999H5.29877C5.25738 4.35191 5.22574 4.20138 5.20386 4.04928C5.18223 3.89566 5.17179 3.74065 5.17303 3.58553C5.16589 3.11417 5.25551 2.64635 5.43609 2.2109C5.61668 1.77546 5.88452 1.38161 6.22314 1.05365C6.54998 0.714668 6.94271 0.446273 7.37732 0.265034C7.81192 0.0837959 8.27916 -0.00643833 8.75 -9.73728e-05C9.22105 -0.00719778 9.68862 0.082498 10.1236 0.263434C10.5586 0.44437 10.9516 0.712691 11.2787 1.05178C11.6174 1.37971 11.8853 1.77353 12.066 2.20898C12.2467 2.64442 12.3364 3.11226 12.3294 3.58365C12.33 3.73876 12.3199 3.89372 12.2989 4.0474C12.2769 4.19948 12.2449 4.35 12.2037 4.49803H13.2831C13.9615 4.48481 14.6194 4.73067 15.123 5.18553C15.6319 5.63289 15.9644 6.24728 16.0605 6.91803L17.4701 16.7799C17.5345 17.1795 17.5088 17.5884 17.3953 17.9768C17.2818 18.3653 17.0831 18.7236 16.8137 19.0255C16.5545 19.339 16.2276 19.5896 15.8575 19.7583C15.4875 19.9271 15.084 20.0097 14.6774 19.9999H2.82257ZM2.82257 17.1787H14.678L13.2706 7.31865H4.23187L2.82257 17.1787ZM8.10638 2.9324C8.01898 3.01633 7.9497 3.1175 7.90344 3.2295C7.85718 3.34149 7.83483 3.46188 7.83752 3.58303C7.83582 3.7033 7.85874 3.82264 7.90497 3.93368C7.95119 4.04473 8.01984 4.14512 8.10638 4.22865C8.19066 4.31577 8.29188 4.3846 8.40393 4.43083C8.51598 4.47707 8.63644 4.49973 8.75763 4.4974C8.87787 4.50023 8.99727 4.47776 9.10827 4.43147C9.21928 4.38517 9.31926 4.31607 9.40185 4.22865C9.48685 4.14278 9.55382 4.04073 9.59869 3.92855C9.64357 3.81637 9.66541 3.69633 9.66308 3.57553C9.6659 3.45567 9.64415 3.33651 9.599 3.22545C9.55384 3.11439 9.48628 3.01379 9.40063 2.9299C9.31537 2.84491 9.2137 2.7781 9.10187 2.73352C8.99003 2.68894 8.87035 2.66751 8.75 2.67053C8.63043 2.66848 8.51163 2.69068 8.40088 2.7358C8.29013 2.78091 8.18987 2.84801 8.10577 2.93303L8.10638 2.9324ZM24.3494 16.2499V7.52115L21.987 9.9424L20.625 8.5624L25.3125 3.7499L30 8.5624L28.638 9.94115L26.275 7.5199V16.2499H24.3494Z" fill="#4741A6"/>
</g>
<defs>
<clipPath id="clip0_91_14">
<rect width="30" height="20" fill="white"/>
</clipPath>
</defs>
</svg>
