<svg xmlns="http://www.w3.org/2000/svg" xmlns:xlink="http://www.w3.org/1999/xlink" width="159.832" height="53" viewBox="0 0 159.832 53">
  <defs>
    <clipPath id="clip-path">
      <rect id="Rectangle_87884" data-name="Rectangle 87884" width="159.832" height="53" fill="#1a46ba"/>
    </clipPath>
  </defs>
  <g id="Group_2989" data-name="Group 2989" transform="translate(0 0)">
    <g id="Group_2941" data-name="Group 2941" transform="translate(0 0)" clip-path="url(#clip-path)">
      <path id="Path_49355" data-name="Path 49355" d="M180.858,23.173v9.084h11.261c-2.153,4.71-7.079,7.668-13.281,7.668-8.538,0-14.323-5.427-14.323-13.282,0-7.426,5.372-13.567,14.323-13.567a14.79,14.79,0,0,1,10.37,3.841l16.114-5.368C199.726,4.272,189.982,0,178.906,0c-17.342,0-31.42,10.473-31.42,26.553,0,16.5,14.077,26.447,31.42,26.447s31.42-9.944,31.42-26.447a26.385,26.385,0,0,0-.215-3.38Z" transform="translate(-96.073 0)" fill="#1a46ba"/>
      <path id="Path_49356" data-name="Path 49356" d="M29.771,53.689H0V2.276H25.727c11.477.106,22.845,2.75,22.845,14.282A10.44,10.44,0,0,1,40.7,26.925v.423c6.668,1.9,10.712,6.03,10.712,12.166,0,10.367-11.04,14.07-21.643,14.175M21.6,11.99H15.757V23.342H21.6c4.524-.162,9.049-.973,9.049-5.838,0-5.027-4.692-5.514-9.049-5.514m.161,19.03H15.757V43.975h6.172c5.123-.16,11.4-.96,11.4-6.557s-6.445-6.237-11.567-6.4" transform="translate(0 -1.483)" fill="#1a46ba"/>
      <path id="Path_49357" data-name="Path 49357" d="M378.113,11.665V2.276H335.095V53.689h15.746V31.16h21.274V21.771H350.841V11.665Z" transform="translate(-218.282 -1.483)" fill="#1a46ba"/>
    </g>
  </g>
</svg>
